<?xml version="1.0" encoding="UTF-8"?>
<svg xmlns="http://www.w3.org/2000/svg" xlink="http://www.w3.org/1999/xlink" zoomAndPan="magnify" viewBox="0 0 1500 1499.999933" preserveAspectRatio="xMidYMid meet" version="1.2" baseProfile="tiny-ps"><title>DL</title><defs><clipPath id="fc77f0fe94"><path d="M 1260.207031 1377.066406 L 1415 1377.066406 L 1415 1439.316406 L 1260.207031 1439.316406 Z M 1260.207031 1377.066406 " clip-rule="nonzero"/></clipPath><clipPath id="84fb18c319"><path d="M 1166.8125 1057 L 1229.0625 1057 L 1229.0625 1439.664062 L 1166.8125 1439.664062 Z M 1166.8125 1057 " clip-rule="nonzero"/></clipPath><clipPath id="3f2ba68492"><path d="M 777.472656 1063.910156 L 1094.1875 1063.910156 L 1094.1875 1432 L 777.472656 1432 Z M 777.472656 1063.910156 " clip-rule="nonzero"/></clipPath><clipPath id="ffde08f16c"><path d="M 749 1064.3125 L 781.414062 1064.3125 L 781.414062 1129.5625 L 749 1129.5625 Z M 749 1064.3125 " clip-rule="nonzero"/></clipPath><clipPath id="358dc1fe3f"><path d="M 749 1366.585938 L 781.414062 1366.585938 L 781.414062 1431.835938 L 749 1431.835938 Z M 749 1366.585938 " clip-rule="nonzero"/></clipPath></defs><rect x="-150" width="1800" fill="#ffffff" y="-149.999993" height="1799.99992" fill-opacity="1"/><rect x="-150" width="1800" fill="#000000" y="-149.999993" height="1799.99992" fill-opacity="1"/><g clip-path="url(#fc77f0fe94)"><path fill="#ffffff" d="M 1383.082031 1439.367188 C 1384.109375 1439.378906 1385.136719 1439.34375 1386.160156 1439.257812 C 1387.183594 1439.167969 1388.203125 1439.03125 1389.214844 1438.84375 C 1390.226562 1438.65625 1391.222656 1438.417969 1392.210938 1438.128906 C 1393.199219 1437.84375 1394.171875 1437.507812 1395.125 1437.125 C 1396.078125 1436.742188 1397.011719 1436.3125 1397.921875 1435.835938 C 1398.835938 1435.359375 1399.71875 1434.839844 1400.582031 1434.277344 C 1401.441406 1433.710938 1402.269531 1433.109375 1403.070312 1432.460938 C 1403.871094 1431.816406 1404.636719 1431.132812 1405.371094 1430.410156 C 1406.101562 1429.6875 1406.796875 1428.929688 1407.453125 1428.140625 C 1408.109375 1427.347656 1408.726562 1426.527344 1409.304688 1425.675781 C 1409.878906 1424.824219 1410.410156 1423.945312 1410.898438 1423.039062 C 1411.390625 1422.136719 1411.832031 1421.210938 1412.230469 1420.261719 C 1412.625 1419.3125 1412.976562 1418.347656 1413.277344 1417.363281 C 1413.578125 1416.378906 1413.828125 1415.382812 1414.03125 1414.375 C 1414.234375 1413.367188 1414.386719 1412.351562 1414.488281 1411.328125 C 1414.589844 1410.304688 1414.640625 1409.277344 1414.640625 1408.25 C 1414.640625 1407.222656 1414.589844 1406.195312 1414.488281 1405.171875 C 1414.386719 1404.148438 1414.234375 1403.132812 1414.03125 1402.125 C 1413.828125 1401.117188 1413.578125 1400.121094 1413.277344 1399.136719 C 1412.976562 1398.15625 1412.625 1397.1875 1412.230469 1396.242188 C 1411.832031 1395.292969 1411.390625 1394.363281 1410.898438 1393.460938 C 1410.410156 1392.554688 1409.878906 1391.675781 1409.304688 1390.824219 C 1408.726562 1389.972656 1408.109375 1389.152344 1407.453125 1388.359375 C 1406.796875 1387.570312 1406.101562 1386.8125 1405.371094 1386.089844 C 1404.636719 1385.371094 1403.871094 1384.683594 1403.070312 1384.039062 C 1402.269531 1383.394531 1401.441406 1382.789062 1400.582031 1382.226562 C 1399.71875 1381.660156 1398.835938 1381.140625 1397.921875 1380.664062 C 1397.011719 1380.1875 1396.078125 1379.757812 1395.125 1379.375 C 1394.171875 1378.992188 1393.199219 1378.65625 1392.210938 1378.371094 C 1391.222656 1378.082031 1390.226562 1377.84375 1389.214844 1377.65625 C 1388.203125 1377.46875 1387.183594 1377.332031 1386.160156 1377.246094 C 1385.136719 1377.15625 1384.109375 1377.121094 1383.082031 1377.136719 L 848 1377.136719 C 846.972656 1377.121094 845.945312 1377.15625 844.921875 1377.246094 C 843.894531 1377.332031 842.878906 1377.46875 841.867188 1377.65625 C 840.855469 1377.84375 839.855469 1378.082031 838.871094 1378.371094 C 837.882812 1378.65625 836.910156 1378.992188 835.957031 1379.375 C 835.003906 1379.757812 834.070312 1380.1875 833.15625 1380.664062 C 832.246094 1381.140625 831.359375 1381.660156 830.5 1382.226562 C 829.640625 1382.789062 828.808594 1383.394531 828.011719 1384.039062 C 827.210938 1384.683594 826.445312 1385.371094 825.710938 1386.089844 C 824.980469 1386.8125 824.285156 1387.570312 823.628906 1388.359375 C 822.96875 1389.152344 822.355469 1389.972656 821.777344 1390.824219 C 821.203125 1391.675781 820.667969 1392.554688 820.179688 1393.460938 C 819.691406 1394.363281 819.25 1395.292969 818.851562 1396.242188 C 818.457031 1397.1875 818.105469 1398.15625 817.804688 1399.136719 C 817.503906 1400.121094 817.253906 1401.117188 817.050781 1402.125 C 816.847656 1403.132812 816.695312 1404.148438 816.59375 1405.171875 C 816.492188 1406.195312 816.441406 1407.222656 816.441406 1408.25 C 816.441406 1409.277344 816.492188 1410.304688 816.59375 1411.328125 C 816.695312 1412.351562 816.847656 1413.367188 817.050781 1414.375 C 817.253906 1415.382812 817.503906 1416.378906 817.804688 1417.363281 C 818.105469 1418.347656 818.457031 1419.3125 818.851562 1420.261719 C 819.25 1421.210938 819.691406 1422.136719 820.179688 1423.039062 C 820.667969 1423.945312 821.203125 1424.824219 821.777344 1425.675781 C 822.355469 1426.527344 822.96875 1427.347656 823.628906 1428.140625 C 824.285156 1428.929688 824.980469 1429.6875 825.710938 1430.410156 C 826.445312 1431.132812 827.210938 1431.816406 828.011719 1432.460938 C 828.808594 1433.109375 829.640625 1433.710938 830.5 1434.277344 C 831.359375 1434.839844 832.246094 1435.359375 833.15625 1435.835938 C 834.070312 1436.3125 835.003906 1436.742188 835.957031 1437.125 C 836.910156 1437.507812 837.882812 1437.84375 838.871094 1438.128906 C 839.855469 1438.417969 840.855469 1438.65625 841.867188 1438.84375 C 842.878906 1439.03125 843.894531 1439.167969 844.921875 1439.257812 C 845.945312 1439.34375 846.972656 1439.378906 848 1439.367188 Z M 1383.082031 1439.367188 " fill-opacity="1" fill-rule="nonzero"/></g><g clip-path="url(#84fb18c319)"><path fill="#ffffff" d="M 1229.109375 1088.792969 C 1229.125 1087.765625 1229.089844 1086.738281 1229.003906 1085.710938 C 1228.914062 1084.6875 1228.777344 1083.671875 1228.589844 1082.660156 C 1228.402344 1081.648438 1228.164062 1080.648438 1227.875 1079.660156 C 1227.589844 1078.675781 1227.253906 1077.703125 1226.871094 1076.75 C 1226.488281 1075.796875 1226.058594 1074.863281 1225.582031 1073.949219 C 1225.105469 1073.039062 1224.585938 1072.152344 1224.023438 1071.292969 C 1223.457031 1070.433594 1222.851562 1069.601562 1222.207031 1068.804688 C 1221.5625 1068.003906 1220.875 1067.238281 1220.15625 1066.503906 C 1219.433594 1065.773438 1218.675781 1065.078125 1217.886719 1064.417969 C 1217.09375 1063.761719 1216.273438 1063.144531 1215.421875 1062.570312 C 1214.570312 1061.996094 1213.691406 1061.460938 1212.785156 1060.972656 C 1211.882812 1060.484375 1210.953125 1060.042969 1210.007812 1059.644531 C 1209.058594 1059.246094 1208.089844 1058.898438 1207.109375 1058.597656 C 1206.125 1058.296875 1205.128906 1058.042969 1204.121094 1057.84375 C 1203.113281 1057.640625 1202.097656 1057.488281 1201.074219 1057.386719 C 1200.050781 1057.285156 1199.023438 1057.234375 1197.996094 1057.234375 C 1196.96875 1057.234375 1195.941406 1057.285156 1194.917969 1057.386719 C 1193.894531 1057.488281 1192.878906 1057.640625 1191.871094 1057.84375 C 1190.863281 1058.042969 1189.867188 1058.296875 1188.882812 1058.597656 C 1187.902344 1058.898438 1186.933594 1059.246094 1185.984375 1059.644531 C 1185.039062 1060.042969 1184.109375 1060.484375 1183.207031 1060.972656 C 1182.300781 1061.460938 1181.421875 1061.996094 1180.570312 1062.570312 C 1179.71875 1063.144531 1178.898438 1063.761719 1178.105469 1064.417969 C 1177.316406 1065.078125 1176.558594 1065.773438 1175.835938 1066.503906 C 1175.113281 1067.238281 1174.429688 1068.003906 1173.785156 1068.804688 C 1173.140625 1069.601562 1172.535156 1070.433594 1171.96875 1071.292969 C 1171.40625 1072.152344 1170.886719 1073.039062 1170.410156 1073.949219 C 1169.933594 1074.863281 1169.503906 1075.796875 1169.121094 1076.75 C 1168.738281 1077.703125 1168.402344 1078.675781 1168.117188 1079.660156 C 1167.828125 1080.648438 1167.589844 1081.648438 1167.402344 1082.660156 C 1167.214844 1083.671875 1167.078125 1084.6875 1166.988281 1085.710938 C 1166.902344 1086.738281 1166.867188 1087.765625 1166.882812 1088.792969 L 1166.882812 1623.875 C 1166.867188 1624.902344 1166.902344 1625.929688 1166.988281 1626.953125 C 1167.078125 1627.976562 1167.214844 1628.996094 1167.402344 1630.007812 C 1167.589844 1631.015625 1167.828125 1632.015625 1168.117188 1633.003906 C 1168.402344 1633.992188 1168.738281 1634.960938 1169.121094 1635.917969 C 1169.503906 1636.871094 1169.933594 1637.804688 1170.410156 1638.714844 C 1170.886719 1639.625 1171.40625 1640.511719 1171.96875 1641.371094 C 1172.535156 1642.234375 1173.140625 1643.0625 1173.785156 1643.863281 C 1174.429688 1644.664062 1175.113281 1645.429688 1175.835938 1646.160156 C 1176.558594 1646.894531 1177.316406 1647.589844 1178.105469 1648.246094 C 1178.898438 1648.902344 1179.71875 1649.519531 1180.570312 1650.09375 C 1181.421875 1650.671875 1182.300781 1651.203125 1183.207031 1651.691406 C 1184.109375 1652.179688 1185.039062 1652.625 1185.984375 1653.019531 C 1186.933594 1653.417969 1187.902344 1653.765625 1188.882812 1654.066406 C 1189.867188 1654.371094 1190.863281 1654.621094 1191.871094 1654.824219 C 1192.878906 1655.027344 1193.894531 1655.179688 1194.917969 1655.28125 C 1195.941406 1655.382812 1196.96875 1655.433594 1197.996094 1655.433594 C 1199.023438 1655.433594 1200.050781 1655.382812 1201.074219 1655.28125 C 1202.097656 1655.179688 1203.113281 1655.027344 1204.121094 1654.824219 C 1205.128906 1654.621094 1206.125 1654.371094 1207.109375 1654.066406 C 1208.089844 1653.765625 1209.058594 1653.417969 1210.007812 1653.019531 C 1210.953125 1652.625 1211.882812 1652.179688 1212.785156 1651.691406 C 1213.691406 1651.203125 1214.570312 1650.671875 1215.421875 1650.09375 C 1216.273438 1649.519531 1217.09375 1648.902344 1217.886719 1648.246094 C 1218.675781 1647.589844 1219.433594 1646.894531 1220.15625 1646.160156 C 1220.878906 1645.429688 1221.5625 1644.664062 1222.207031 1643.863281 C 1222.851562 1643.0625 1223.457031 1642.234375 1224.023438 1641.371094 C 1224.585938 1640.511719 1225.105469 1639.625 1225.582031 1638.714844 C 1226.058594 1637.804688 1226.488281 1636.871094 1226.871094 1635.917969 C 1227.253906 1634.960938 1227.589844 1633.992188 1227.875 1633.003906 C 1228.164062 1632.015625 1228.402344 1631.015625 1228.589844 1630.007812 C 1228.777344 1628.996094 1228.914062 1627.976562 1229.003906 1626.953125 C 1229.089844 1625.929688 1229.125 1624.902344 1229.109375 1623.875 Z M 1229.109375 1088.792969 " fill-opacity="1" fill-rule="nonzero"/></g><g clip-path="url(#3f2ba68492)"><path fill="#ffffff" d="M 584.1875 1399.597656 C 584.203125 1400.675781 584.273438 1401.746094 584.394531 1402.8125 C 584.515625 1403.882812 584.691406 1404.941406 584.917969 1405.992188 C 585.140625 1407.042969 585.417969 1408.082031 585.746094 1409.105469 C 586.074219 1410.128906 586.453125 1411.136719 586.878906 1412.121094 C 587.304688 1413.109375 587.78125 1414.074219 588.300781 1415.015625 C 588.820312 1415.953125 589.386719 1416.867188 590 1417.753906 C 590.609375 1418.636719 591.261719 1419.492188 591.957031 1420.3125 C 592.652344 1421.132812 593.382812 1421.917969 594.15625 1422.667969 C 594.925781 1423.414062 595.734375 1424.125 596.574219 1424.792969 C 597.414062 1425.464844 598.289062 1426.089844 599.191406 1426.675781 C 600.09375 1427.257812 601.023438 1427.796875 601.976562 1428.292969 C 602.933594 1428.785156 603.910156 1429.230469 604.910156 1429.625 C 605.910156 1430.023438 606.925781 1430.371094 607.960938 1430.667969 C 608.992188 1430.964844 610.039062 1431.210938 611.09375 1431.40625 C 612.152344 1431.601562 613.21875 1431.742188 614.289062 1431.832031 C 615.359375 1431.921875 616.433594 1431.960938 617.507812 1431.945312 L 920.75 1431.945312 C 1017.515625 1431.945312 1094.296875 1347.945312 1094.296875 1247.925781 C 1094.296875 1147.90625 1017.515625 1063.90625 920.75 1063.90625 L 617.507812 1063.90625 C 616.421875 1063.890625 615.339844 1063.929688 614.257812 1064.023438 C 613.175781 1064.113281 612.101562 1064.261719 611.03125 1064.460938 C 609.964844 1064.65625 608.910156 1064.910156 607.867188 1065.210938 C 606.824219 1065.515625 605.796875 1065.871094 604.789062 1066.273438 C 603.78125 1066.679688 602.796875 1067.132812 601.835938 1067.636719 C 600.871094 1068.136719 599.9375 1068.6875 599.027344 1069.28125 C 598.121094 1069.878906 597.242188 1070.515625 596.398438 1071.199219 C 595.554688 1071.882812 594.746094 1072.605469 593.972656 1073.367188 C 593.199219 1074.128906 592.464844 1074.929688 591.769531 1075.761719 C 591.074219 1076.597656 590.425781 1077.464844 589.816406 1078.367188 C 589.207031 1079.265625 588.644531 1080.191406 588.128906 1081.148438 C 587.613281 1082.105469 587.144531 1083.082031 586.726562 1084.085938 C 586.308594 1085.085938 585.941406 1086.105469 585.621094 1087.144531 C 585.304688 1088.183594 585.039062 1089.234375 584.824219 1090.300781 C 584.609375 1091.363281 584.449219 1092.4375 584.34375 1093.519531 C 584.234375 1094.597656 584.179688 1095.683594 584.179688 1096.769531 C 584.179688 1097.855469 584.234375 1098.9375 584.34375 1100.019531 C 584.449219 1101.097656 584.609375 1102.171875 584.824219 1103.238281 C 585.039062 1104.300781 585.304688 1105.351562 585.621094 1106.390625 C 585.941406 1107.429688 586.308594 1108.449219 586.726562 1109.453125 C 587.144531 1110.453125 587.613281 1111.433594 588.128906 1112.386719 C 588.644531 1113.34375 589.207031 1114.269531 589.816406 1115.171875 C 590.425781 1116.070312 591.074219 1116.9375 591.769531 1117.773438 C 592.464844 1118.609375 593.199219 1119.40625 593.972656 1120.171875 C 594.746094 1120.933594 595.554688 1121.65625 596.398438 1122.335938 C 597.242188 1123.019531 598.121094 1123.65625 599.027344 1124.253906 C 599.9375 1124.847656 600.871094 1125.398438 601.835938 1125.902344 C 602.796875 1126.402344 603.78125 1126.855469 604.789062 1127.261719 C 605.796875 1127.667969 606.824219 1128.019531 607.867188 1128.324219 C 608.910156 1128.628906 609.964844 1128.878906 611.03125 1129.078125 C 612.101562 1129.277344 613.175781 1129.421875 614.257812 1129.511719 C 615.339844 1129.605469 616.421875 1129.644531 617.507812 1129.628906 L 920.75 1129.628906 C 979.351562 1129.628906 1028.574219 1180.960938 1028.574219 1247.925781 C 1028.574219 1314.890625 979.351562 1366.226562 920.75 1366.226562 L 617.507812 1366.226562 C 616.414062 1366.210938 615.316406 1366.25 614.226562 1366.34375 C 613.132812 1366.4375 612.046875 1366.585938 610.96875 1366.789062 C 609.890625 1366.992188 608.828125 1367.246094 607.773438 1367.554688 C 606.722656 1367.867188 605.6875 1368.226562 604.671875 1368.640625 C 603.65625 1369.054688 602.664062 1369.515625 601.695312 1370.027344 C 600.722656 1370.539062 599.78125 1371.101562 598.867188 1371.707031 C 597.953125 1372.3125 597.074219 1372.964844 596.226562 1373.660156 C 595.375 1374.351562 594.566406 1375.089844 593.789062 1375.863281 C 593.015625 1376.640625 592.28125 1377.453125 591.585938 1378.304688 C 590.894531 1379.152344 590.246094 1380.035156 589.640625 1380.949219 C 589.035156 1381.863281 588.476562 1382.808594 587.964844 1383.777344 C 587.453125 1384.746094 586.992188 1385.742188 586.582031 1386.757812 C 586.171875 1387.773438 585.8125 1388.808594 585.503906 1389.863281 C 585.195312 1390.914062 584.941406 1391.980469 584.738281 1393.058594 C 584.539062 1394.136719 584.390625 1395.222656 584.300781 1396.316406 C 584.207031 1397.40625 584.167969 1398.503906 584.1875 1399.597656 Z M 584.1875 1399.597656 " fill-opacity="1" fill-rule="nonzero"/></g><g clip-path="url(#ffde08f16c)"><path fill="#ffffff" d="M 782.519531 1064.261719 C 781.4375 1064.246094 780.355469 1064.285156 779.277344 1064.375 C 778.199219 1064.46875 777.125 1064.613281 776.058594 1064.8125 C 774.996094 1065.007812 773.941406 1065.261719 772.902344 1065.5625 C 771.863281 1065.863281 770.839844 1066.21875 769.832031 1066.621094 C 768.828125 1067.027344 767.847656 1067.480469 766.886719 1067.980469 C 765.925781 1068.480469 764.992188 1069.027344 764.085938 1069.621094 C 763.179688 1070.21875 762.304688 1070.855469 761.460938 1071.535156 C 760.621094 1072.214844 759.8125 1072.9375 759.042969 1073.695312 C 758.269531 1074.457031 757.539062 1075.253906 756.84375 1076.085938 C 756.152344 1076.921875 755.503906 1077.785156 754.898438 1078.683594 C 754.289062 1079.582031 753.730469 1080.507812 753.214844 1081.460938 C 752.699219 1082.414062 752.234375 1083.386719 751.816406 1084.386719 C 751.398438 1085.386719 751.027344 1086.40625 750.710938 1087.441406 C 750.394531 1088.476562 750.128906 1089.527344 749.917969 1090.585938 C 749.703125 1091.648438 749.542969 1092.71875 749.4375 1093.796875 C 749.328125 1094.875 749.273438 1095.957031 749.273438 1097.039062 C 749.273438 1098.125 749.328125 1099.203125 749.4375 1100.28125 C 749.542969 1101.359375 749.703125 1102.429688 749.917969 1103.492188 C 750.128906 1104.554688 750.394531 1105.601562 750.710938 1106.640625 C 751.027344 1107.675781 751.398438 1108.691406 751.816406 1109.691406 C 752.234375 1110.691406 752.699219 1111.667969 753.214844 1112.621094 C 753.730469 1113.574219 754.289062 1114.5 754.898438 1115.398438 C 755.503906 1116.292969 756.152344 1117.160156 756.84375 1117.992188 C 757.539062 1118.828125 758.269531 1119.625 759.042969 1120.382812 C 759.8125 1121.144531 760.621094 1121.863281 761.460938 1122.546875 C 762.304688 1123.226562 763.179688 1123.863281 764.085938 1124.457031 C 764.992188 1125.050781 765.925781 1125.597656 766.886719 1126.101562 C 767.847656 1126.601562 768.828125 1127.054688 769.832031 1127.457031 C 770.839844 1127.863281 771.863281 1128.214844 772.902344 1128.519531 C 773.941406 1128.820312 774.996094 1129.070312 776.058594 1129.269531 C 777.125 1129.46875 778.199219 1129.613281 779.277344 1129.703125 C 780.355469 1129.796875 781.4375 1129.835938 782.519531 1129.820312 L 1346.210938 1129.820312 C 1347.292969 1129.835938 1348.375 1129.796875 1349.453125 1129.703125 C 1350.53125 1129.613281 1351.605469 1129.46875 1352.671875 1129.269531 C 1353.734375 1129.070312 1354.789062 1128.820312 1355.828125 1128.519531 C 1356.867188 1128.214844 1357.890625 1127.863281 1358.898438 1127.457031 C 1359.902344 1127.054688 1360.882812 1126.601562 1361.84375 1126.101562 C 1362.804688 1125.597656 1363.738281 1125.050781 1364.644531 1124.457031 C 1365.550781 1123.863281 1366.425781 1123.226562 1367.269531 1122.546875 C 1368.109375 1121.863281 1368.917969 1121.144531 1369.6875 1120.382812 C 1370.460938 1119.625 1371.191406 1118.828125 1371.886719 1117.992188 C 1372.578125 1117.160156 1373.226562 1116.292969 1373.832031 1115.398438 C 1374.441406 1114.5 1375 1113.574219 1375.515625 1112.621094 C 1376.03125 1111.667969 1376.496094 1110.691406 1376.914062 1109.691406 C 1377.332031 1108.691406 1377.703125 1107.675781 1378.019531 1106.640625 C 1378.335938 1105.601562 1378.601562 1104.554688 1378.8125 1103.492188 C 1379.027344 1102.429688 1379.1875 1101.359375 1379.292969 1100.28125 C 1379.402344 1099.203125 1379.457031 1098.125 1379.457031 1097.039062 C 1379.457031 1095.957031 1379.402344 1094.875 1379.292969 1093.796875 C 1379.1875 1092.71875 1379.027344 1091.648438 1378.8125 1090.585938 C 1378.601562 1089.527344 1378.335938 1088.476562 1378.019531 1087.441406 C 1377.703125 1086.40625 1377.332031 1085.386719 1376.914062 1084.386719 C 1376.496094 1083.386719 1376.03125 1082.414062 1375.515625 1081.460938 C 1375 1080.507812 1374.441406 1079.582031 1373.832031 1078.683594 C 1373.226562 1077.785156 1372.578125 1076.921875 1371.886719 1076.085938 C 1371.191406 1075.253906 1370.460938 1074.457031 1369.6875 1073.695312 C 1368.917969 1072.9375 1368.109375 1072.214844 1367.269531 1071.535156 C 1366.425781 1070.855469 1365.550781 1070.21875 1364.644531 1069.621094 C 1363.738281 1069.027344 1362.804688 1068.480469 1361.84375 1067.980469 C 1360.882812 1067.480469 1359.902344 1067.027344 1358.898438 1066.621094 C 1357.890625 1066.21875 1356.867188 1065.863281 1355.828125 1065.5625 C 1354.789062 1065.261719 1353.734375 1065.007812 1352.671875 1064.8125 C 1351.605469 1064.613281 1350.53125 1064.46875 1349.453125 1064.375 C 1348.375 1064.285156 1347.292969 1064.246094 1346.210938 1064.261719 Z M 782.519531 1064.261719 " fill-opacity="1" fill-rule="nonzero"/></g><g clip-path="url(#358dc1fe3f)"><path fill="#ffffff" d="M 782.519531 1366.535156 C 781.4375 1366.519531 780.355469 1366.558594 779.277344 1366.648438 C 778.199219 1366.742188 777.125 1366.886719 776.058594 1367.082031 C 774.996094 1367.28125 773.941406 1367.53125 772.902344 1367.835938 C 771.863281 1368.136719 770.839844 1368.492188 769.832031 1368.894531 C 768.828125 1369.296875 767.847656 1369.75 766.886719 1370.253906 C 765.925781 1370.753906 764.992188 1371.300781 764.085938 1371.894531 C 763.179688 1372.488281 762.304688 1373.125 761.460938 1373.808594 C 760.621094 1374.488281 759.8125 1375.207031 759.042969 1375.96875 C 758.269531 1376.730469 757.539062 1377.527344 756.84375 1378.359375 C 756.152344 1379.191406 755.503906 1380.058594 754.898438 1380.957031 C 754.289062 1381.851562 753.730469 1382.777344 753.214844 1383.730469 C 752.699219 1384.683594 752.234375 1385.660156 751.816406 1386.660156 C 751.398438 1387.660156 751.027344 1388.675781 750.710938 1389.714844 C 750.394531 1390.75 750.128906 1391.796875 749.917969 1392.859375 C 749.703125 1393.921875 749.542969 1394.992188 749.4375 1396.070312 C 749.328125 1397.148438 749.273438 1398.230469 749.273438 1399.3125 C 749.273438 1400.394531 749.328125 1401.476562 749.4375 1402.554688 C 749.542969 1403.632812 749.703125 1404.703125 749.917969 1405.765625 C 750.128906 1406.828125 750.394531 1407.875 750.710938 1408.910156 C 751.027344 1409.949219 751.398438 1410.964844 751.816406 1411.964844 C 752.234375 1412.964844 752.699219 1413.941406 753.214844 1414.894531 C 753.730469 1415.847656 754.289062 1416.773438 754.898438 1417.667969 C 755.503906 1418.566406 756.152344 1419.433594 756.84375 1420.265625 C 757.539062 1421.097656 758.269531 1421.894531 759.042969 1422.65625 C 759.8125 1423.417969 760.621094 1424.136719 761.460938 1424.816406 C 762.304688 1425.5 763.179688 1426.136719 764.085938 1426.730469 C 764.992188 1427.324219 765.925781 1427.871094 766.886719 1428.371094 C 767.847656 1428.875 768.828125 1429.328125 769.832031 1429.730469 C 770.839844 1430.132812 771.863281 1430.488281 772.902344 1430.789062 C 773.941406 1431.09375 774.996094 1431.34375 776.058594 1431.542969 C 777.125 1431.738281 778.199219 1431.882812 779.277344 1431.976562 C 780.355469 1432.066406 781.4375 1432.105469 782.519531 1432.089844 L 1346.210938 1432.089844 C 1347.292969 1432.105469 1348.375 1432.066406 1349.453125 1431.976562 C 1350.53125 1431.882812 1351.605469 1431.738281 1352.671875 1431.542969 C 1353.734375 1431.34375 1354.789062 1431.09375 1355.828125 1430.789062 C 1356.867188 1430.488281 1357.890625 1430.132812 1358.898438 1429.730469 C 1359.902344 1429.328125 1360.882812 1428.875 1361.84375 1428.371094 C 1362.804688 1427.871094 1363.738281 1427.324219 1364.644531 1426.730469 C 1365.550781 1426.136719 1366.425781 1425.5 1367.269531 1424.816406 C 1368.109375 1424.136719 1368.917969 1423.417969 1369.6875 1422.65625 C 1370.460938 1421.894531 1371.191406 1421.097656 1371.886719 1420.265625 C 1372.578125 1419.433594 1373.226562 1418.566406 1373.832031 1417.667969 C 1374.441406 1416.773438 1375 1415.847656 1375.515625 1414.894531 C 1376.03125 1413.941406 1376.496094 1412.964844 1376.914062 1411.964844 C 1377.332031 1410.964844 1377.703125 1409.949219 1378.019531 1408.910156 C 1378.335938 1407.875 1378.601562 1406.828125 1378.8125 1405.765625 C 1379.027344 1404.703125 1379.1875 1403.632812 1379.292969 1402.554688 C 1379.402344 1401.476562 1379.457031 1400.394531 1379.457031 1399.3125 C 1379.457031 1398.230469 1379.402344 1397.148438 1379.292969 1396.070312 C 1379.1875 1394.992188 1379.027344 1393.921875 1378.8125 1392.859375 C 1378.601562 1391.796875 1378.335938 1390.75 1378.019531 1389.714844 C 1377.703125 1388.675781 1377.332031 1387.660156 1376.914062 1386.660156 C 1376.496094 1385.660156 1376.03125 1384.683594 1375.515625 1383.730469 C 1375 1382.777344 1374.441406 1381.851562 1373.832031 1380.957031 C 1373.226562 1380.058594 1372.578125 1379.191406 1371.886719 1378.359375 C 1371.191406 1377.527344 1370.460938 1376.730469 1369.6875 1375.96875 C 1368.917969 1375.207031 1368.109375 1374.488281 1367.269531 1373.808594 C 1366.425781 1373.125 1365.550781 1372.488281 1364.644531 1371.894531 C 1363.738281 1371.300781 1362.804688 1370.753906 1361.84375 1370.253906 C 1360.882812 1369.75 1359.902344 1369.296875 1358.898438 1368.894531 C 1357.890625 1368.492188 1356.867188 1368.136719 1355.828125 1367.835938 C 1354.789062 1367.53125 1353.734375 1367.28125 1352.671875 1367.082031 C 1351.605469 1366.886719 1350.53125 1366.742188 1349.453125 1366.648438 C 1348.375 1366.558594 1347.292969 1366.519531 1346.210938 1366.535156 Z M 782.519531 1366.535156 " fill-opacity="1" fill-rule="nonzero"/></g></svg>